<mxfile host="Electron" agent="Mozilla/5.0 (Windows NT 10.0; Win64; x64) AppleWebKit/537.36 (KHTML, like Gecko) draw.io/25.0.2 Chrome/128.0.6613.186 Electron/32.2.5 Safari/537.36" version="25.0.2">
  <diagram name="Seite-1" id="QK2HAfTXOCQhMa8kFVua">
    <mxGraphModel dx="475" dy="758" grid="1" gridSize="10" guides="1" tooltips="1" connect="1" arrows="1" fold="1" page="1" pageScale="1" pageWidth="827" pageHeight="1169" math="0" shadow="0">
      <root>
        <mxCell id="0" />
        <mxCell id="1" parent="0" />
        <mxCell id="OB-4bpoAMs0yZIJqVkp9-46" value="&lt;div style=&quot;&quot;&gt;&lt;span style=&quot;background-color: initial;&quot;&gt;&amp;nbsp; Business Logic&lt;/span&gt;&lt;/div&gt;" style="html=1;dropTarget=0;whiteSpace=wrap;align=left;verticalAlign=top;fillColor=#f5f5f5;fontColor=#333333;strokeColor=#666666;" parent="1" vertex="1">
          <mxGeometry x="1160" y="450" width="1430" height="430" as="geometry" />
        </mxCell>
        <mxCell id="OB-4bpoAMs0yZIJqVkp9-47" value="" style="shape=module;jettyWidth=8;jettyHeight=4;" parent="OB-4bpoAMs0yZIJqVkp9-46" vertex="1">
          <mxGeometry x="1" width="20" height="20" relative="1" as="geometry">
            <mxPoint x="-27" y="7" as="offset" />
          </mxGeometry>
        </mxCell>
        <mxCell id="OB-4bpoAMs0yZIJqVkp9-19" style="edgeStyle=orthogonalEdgeStyle;rounded=0;orthogonalLoop=1;jettySize=auto;html=1;fillColor=#f5f5f5;strokeColor=#000000;jumpStyle=arc;" parent="1" source="OB-4bpoAMs0yZIJqVkp9-3" target="OB-4bpoAMs0yZIJqVkp9-4" edge="1">
          <mxGeometry relative="1" as="geometry" />
        </mxCell>
        <mxCell id="OB-4bpoAMs0yZIJqVkp9-3" value="ContactList" style="rounded=0;whiteSpace=wrap;html=1;fontSize=17;fillColor=#f5f5f5;fontColor=#333333;strokeColor=#666666;" parent="1" vertex="1">
          <mxGeometry x="2440" y="650" width="120" height="60" as="geometry" />
        </mxCell>
        <mxCell id="OB-4bpoAMs0yZIJqVkp9-21" style="edgeStyle=orthogonalEdgeStyle;rounded=0;orthogonalLoop=1;jettySize=auto;html=1;strokeColor=#000000;jumpStyle=arc;" parent="1" source="OB-4bpoAMs0yZIJqVkp9-4" target="OB-4bpoAMs0yZIJqVkp9-20" edge="1">
          <mxGeometry relative="1" as="geometry">
            <Array as="points">
              <mxPoint x="2590" y="780" />
              <mxPoint x="2590" y="780" />
            </Array>
          </mxGeometry>
        </mxCell>
        <mxCell id="OB-4bpoAMs0yZIJqVkp9-4" value="Database" style="rounded=0;whiteSpace=wrap;html=1;fontSize=17;fillColor=#f5f5f5;fontColor=#333333;strokeColor=#666666;" parent="1" vertex="1">
          <mxGeometry x="2440" y="750" width="120" height="60" as="geometry" />
        </mxCell>
        <mxCell id="OB-4bpoAMs0yZIJqVkp9-24" style="edgeStyle=orthogonalEdgeStyle;rounded=0;orthogonalLoop=1;jettySize=auto;html=1;jumpStyle=arc;fillColor=#f5f5f5;strokeColor=#000000;" parent="1" source="OB-4bpoAMs0yZIJqVkp9-5" target="OB-4bpoAMs0yZIJqVkp9-6" edge="1">
          <mxGeometry relative="1" as="geometry" />
        </mxCell>
        <mxCell id="OB-4bpoAMs0yZIJqVkp9-5" value="Contact" style="rounded=0;whiteSpace=wrap;html=1;fontSize=17;fillColor=#f5f5f5;fontColor=#333333;strokeColor=#666666;" parent="1" vertex="1">
          <mxGeometry x="2100" y="580" width="120" height="60" as="geometry" />
        </mxCell>
        <mxCell id="qc44FEbHymRPq5CZaGEs-3" style="edgeStyle=orthogonalEdgeStyle;rounded=0;orthogonalLoop=1;jettySize=auto;html=1;strokeColor=#000000;jumpStyle=arc;" edge="1" parent="1" source="OB-4bpoAMs0yZIJqVkp9-6" target="qc44FEbHymRPq5CZaGEs-1">
          <mxGeometry relative="1" as="geometry">
            <Array as="points">
              <mxPoint x="2150" y="850" />
              <mxPoint x="1910" y="850" />
            </Array>
          </mxGeometry>
        </mxCell>
        <mxCell id="OB-4bpoAMs0yZIJqVkp9-6" value="MetaData" style="rounded=0;whiteSpace=wrap;html=1;fontSize=17;fillColor=#f5f5f5;fontColor=#333333;strokeColor=#666666;" parent="1" vertex="1">
          <mxGeometry x="2100" y="680" width="120" height="60" as="geometry" />
        </mxCell>
        <mxCell id="OB-4bpoAMs0yZIJqVkp9-26" style="edgeStyle=orthogonalEdgeStyle;rounded=0;orthogonalLoop=1;jettySize=auto;html=1;jumpStyle=arc;fillColor=#f5f5f5;strokeColor=#000000;" parent="1" source="OB-4bpoAMs0yZIJqVkp9-7" target="OB-4bpoAMs0yZIJqVkp9-6" edge="1">
          <mxGeometry relative="1" as="geometry" />
        </mxCell>
        <mxCell id="OB-4bpoAMs0yZIJqVkp9-27" style="edgeStyle=orthogonalEdgeStyle;rounded=0;orthogonalLoop=1;jettySize=auto;html=1;jumpStyle=arc;fillColor=#f5f5f5;strokeColor=#000000;" parent="1" source="OB-4bpoAMs0yZIJqVkp9-7" target="OB-4bpoAMs0yZIJqVkp9-8" edge="1">
          <mxGeometry relative="1" as="geometry" />
        </mxCell>
        <mxCell id="OB-4bpoAMs0yZIJqVkp9-7" value="ScanningState" style="rounded=0;whiteSpace=wrap;html=1;fontSize=17;fillColor=#f5f5f5;fontColor=#333333;strokeColor=#666666;" parent="1" vertex="1">
          <mxGeometry x="2240" y="750" width="140" height="60" as="geometry" />
        </mxCell>
        <mxCell id="OB-4bpoAMs0yZIJqVkp9-8" value="Token" style="rounded=0;whiteSpace=wrap;html=1;fontSize=17;fillColor=#f5f5f5;fontColor=#333333;strokeColor=#666666;" parent="1" vertex="1">
          <mxGeometry x="2250" y="650" width="120" height="60" as="geometry" />
        </mxCell>
        <mxCell id="OB-4bpoAMs0yZIJqVkp9-9" value="LetterGreetingGenerator" style="rounded=0;whiteSpace=wrap;html=1;fontSize=17;fillColor=#f5f5f5;fontColor=#333333;strokeColor=#666666;" parent="1" vertex="1">
          <mxGeometry x="1200" y="580" width="210" height="60" as="geometry" />
        </mxCell>
        <mxCell id="OB-4bpoAMs0yZIJqVkp9-10" value="GenderAdder" style="rounded=0;whiteSpace=wrap;html=1;fontSize=17;fillColor=#f5f5f5;fontColor=#333333;strokeColor=#666666;" parent="1" vertex="1">
          <mxGeometry x="1500" y="790" width="120" height="60" as="geometry" />
        </mxCell>
        <mxCell id="OB-4bpoAMs0yZIJqVkp9-38" style="edgeStyle=orthogonalEdgeStyle;rounded=0;orthogonalLoop=1;jettySize=auto;html=1;jumpStyle=arc;fillColor=#f5f5f5;strokeColor=#000000;" parent="1" source="OB-4bpoAMs0yZIJqVkp9-11" target="OB-4bpoAMs0yZIJqVkp9-9" edge="1">
          <mxGeometry relative="1" as="geometry" />
        </mxCell>
        <mxCell id="OB-4bpoAMs0yZIJqVkp9-11" value="LetterGreetingAdder" style="rounded=0;whiteSpace=wrap;html=1;fontSize=17;fillColor=#f5f5f5;fontColor=#333333;strokeColor=#666666;" parent="1" vertex="1">
          <mxGeometry x="1470" y="580" width="180" height="60" as="geometry" />
        </mxCell>
        <mxCell id="OB-4bpoAMs0yZIJqVkp9-40" style="edgeStyle=orthogonalEdgeStyle;rounded=0;orthogonalLoop=1;jettySize=auto;html=1;jumpStyle=arc;fillColor=#f5f5f5;strokeColor=#000000;" parent="1" source="OB-4bpoAMs0yZIJqVkp9-12" edge="1">
          <mxGeometry relative="1" as="geometry">
            <mxPoint x="1475" y="760.001176470588" as="sourcePoint" />
            <mxPoint x="1830" y="760.001176470588" as="targetPoint" />
            <Array as="points">
              <mxPoint x="1730" y="760" />
              <mxPoint x="1730" y="760" />
            </Array>
          </mxGeometry>
        </mxCell>
        <mxCell id="OB-4bpoAMs0yZIJqVkp9-12" value="SalutationsAdder" style="rounded=0;whiteSpace=wrap;html=1;fontSize=17;fillColor=#f5f5f5;fontColor=#333333;strokeColor=#666666;" parent="1" vertex="1">
          <mxGeometry x="1485" y="720" width="150" height="60" as="geometry" />
        </mxCell>
        <mxCell id="OB-4bpoAMs0yZIJqVkp9-39" style="edgeStyle=orthogonalEdgeStyle;rounded=0;orthogonalLoop=1;jettySize=auto;html=1;jumpStyle=arc;fillColor=#f5f5f5;strokeColor=#000000;" parent="1" source="OB-4bpoAMs0yZIJqVkp9-13" target="OB-4bpoAMs0yZIJqVkp9-18" edge="1">
          <mxGeometry relative="1" as="geometry">
            <Array as="points">
              <mxPoint x="1600" y="690" />
              <mxPoint x="1600" y="690" />
            </Array>
          </mxGeometry>
        </mxCell>
        <mxCell id="OB-4bpoAMs0yZIJqVkp9-13" value="TitleAdder" style="rounded=0;whiteSpace=wrap;html=1;fontSize=17;fillColor=#f5f5f5;fontColor=#333333;strokeColor=#666666;" parent="1" vertex="1">
          <mxGeometry x="1500" y="650" width="120" height="60" as="geometry" />
        </mxCell>
        <mxCell id="OB-4bpoAMs0yZIJqVkp9-14" value="AiIntegration" style="rounded=0;whiteSpace=wrap;html=1;fontSize=17;fillColor=#f5f5f5;fontColor=#333333;strokeColor=#666666;" parent="1" vertex="1">
          <mxGeometry x="1730" y="490" width="120" height="60" as="geometry" />
        </mxCell>
        <mxCell id="OB-4bpoAMs0yZIJqVkp9-31" style="edgeStyle=orthogonalEdgeStyle;rounded=0;orthogonalLoop=1;jettySize=auto;html=1;jumpStyle=arc;fillColor=#f5f5f5;strokeColor=#000000;" parent="1" source="OB-4bpoAMs0yZIJqVkp9-15" target="OB-4bpoAMs0yZIJqVkp9-7" edge="1">
          <mxGeometry relative="1" as="geometry">
            <Array as="points">
              <mxPoint x="2030" y="610" />
              <mxPoint x="2030" y="780" />
            </Array>
          </mxGeometry>
        </mxCell>
        <mxCell id="OB-4bpoAMs0yZIJqVkp9-15" value="NameScanner" style="rounded=0;whiteSpace=wrap;html=1;fontSize=17;fillColor=#f5f5f5;fontColor=#333333;strokeColor=#666666;" parent="1" vertex="1">
          <mxGeometry x="1850" y="580" width="120" height="60" as="geometry" />
        </mxCell>
        <mxCell id="OB-4bpoAMs0yZIJqVkp9-32" style="edgeStyle=orthogonalEdgeStyle;rounded=0;orthogonalLoop=1;jettySize=auto;html=1;jumpStyle=arc;fillColor=#f5f5f5;strokeColor=#000000;" parent="1" source="OB-4bpoAMs0yZIJqVkp9-16" target="OB-4bpoAMs0yZIJqVkp9-7" edge="1">
          <mxGeometry relative="1" as="geometry">
            <Array as="points">
              <mxPoint x="2030" y="750" />
              <mxPoint x="2030" y="780" />
            </Array>
          </mxGeometry>
        </mxCell>
        <mxCell id="qc44FEbHymRPq5CZaGEs-5" style="edgeStyle=orthogonalEdgeStyle;rounded=0;orthogonalLoop=1;jettySize=auto;html=1;strokeColor=#000000;jumpStyle=arc;" edge="1" parent="1" source="OB-4bpoAMs0yZIJqVkp9-16" target="qc44FEbHymRPq5CZaGEs-1">
          <mxGeometry relative="1" as="geometry">
            <Array as="points">
              <mxPoint x="1910" y="840" />
              <mxPoint x="1910" y="840" />
            </Array>
          </mxGeometry>
        </mxCell>
        <mxCell id="OB-4bpoAMs0yZIJqVkp9-16" value="SalutationScanner" style="rounded=0;whiteSpace=wrap;html=1;fontSize=17;fillColor=#f5f5f5;fontColor=#333333;strokeColor=#666666;" parent="1" vertex="1">
          <mxGeometry x="1830" y="720" width="160" height="60" as="geometry" />
        </mxCell>
        <mxCell id="OB-4bpoAMs0yZIJqVkp9-30" style="edgeStyle=orthogonalEdgeStyle;rounded=0;orthogonalLoop=1;jettySize=auto;html=1;jumpStyle=arc;fillColor=#f5f5f5;strokeColor=#000000;" parent="1" source="OB-4bpoAMs0yZIJqVkp9-17" target="OB-4bpoAMs0yZIJqVkp9-7" edge="1">
          <mxGeometry relative="1" as="geometry">
            <Array as="points">
              <mxPoint x="1930" y="560" />
              <mxPoint x="2030" y="560" />
              <mxPoint x="2030" y="780" />
            </Array>
          </mxGeometry>
        </mxCell>
        <mxCell id="OB-4bpoAMs0yZIJqVkp9-33" style="edgeStyle=orthogonalEdgeStyle;rounded=0;orthogonalLoop=1;jettySize=auto;html=1;jumpStyle=arc;fillColor=#f5f5f5;strokeColor=#000000;" parent="1" source="OB-4bpoAMs0yZIJqVkp9-17" target="OB-4bpoAMs0yZIJqVkp9-18" edge="1">
          <mxGeometry relative="1" as="geometry">
            <Array as="points">
              <mxPoint x="1930" y="560" />
              <mxPoint x="1800" y="560" />
              <mxPoint x="1800" y="670" />
            </Array>
          </mxGeometry>
        </mxCell>
        <mxCell id="OB-4bpoAMs0yZIJqVkp9-34" style="edgeStyle=orthogonalEdgeStyle;rounded=0;orthogonalLoop=1;jettySize=auto;html=1;jumpStyle=arc;fillColor=#f5f5f5;strokeColor=#000000;" parent="1" source="OB-4bpoAMs0yZIJqVkp9-17" target="OB-4bpoAMs0yZIJqVkp9-15" edge="1">
          <mxGeometry relative="1" as="geometry">
            <Array as="points">
              <mxPoint x="1930" y="560" />
              <mxPoint x="1800" y="560" />
              <mxPoint x="1800" y="610" />
            </Array>
          </mxGeometry>
        </mxCell>
        <mxCell id="OB-4bpoAMs0yZIJqVkp9-35" style="edgeStyle=orthogonalEdgeStyle;rounded=0;orthogonalLoop=1;jettySize=auto;html=1;jumpStyle=arc;fillColor=#f5f5f5;strokeColor=#000000;" parent="1" source="OB-4bpoAMs0yZIJqVkp9-17" target="OB-4bpoAMs0yZIJqVkp9-16" edge="1">
          <mxGeometry relative="1" as="geometry">
            <Array as="points">
              <mxPoint x="1930" y="560" />
              <mxPoint x="1800" y="560" />
              <mxPoint x="1800" y="740" />
            </Array>
          </mxGeometry>
        </mxCell>
        <mxCell id="OB-4bpoAMs0yZIJqVkp9-36" style="edgeStyle=orthogonalEdgeStyle;rounded=0;orthogonalLoop=1;jettySize=auto;html=1;jumpStyle=arc;fillColor=#f5f5f5;strokeColor=#000000;" parent="1" source="OB-4bpoAMs0yZIJqVkp9-17" target="OB-4bpoAMs0yZIJqVkp9-14" edge="1">
          <mxGeometry relative="1" as="geometry">
            <Array as="points">
              <mxPoint x="1800" y="510" />
              <mxPoint x="1800" y="510" />
            </Array>
          </mxGeometry>
        </mxCell>
        <mxCell id="OB-4bpoAMs0yZIJqVkp9-37" style="edgeStyle=orthogonalEdgeStyle;rounded=0;orthogonalLoop=1;jettySize=auto;html=1;jumpStyle=arc;fillColor=#f5f5f5;strokeColor=#000000;" parent="1" source="OB-4bpoAMs0yZIJqVkp9-17" target="OB-4bpoAMs0yZIJqVkp9-5" edge="1">
          <mxGeometry relative="1" as="geometry">
            <Array as="points">
              <mxPoint x="1930" y="560" />
              <mxPoint x="2030" y="560" />
              <mxPoint x="2030" y="610" />
            </Array>
          </mxGeometry>
        </mxCell>
        <mxCell id="OB-4bpoAMs0yZIJqVkp9-17" value="Scanner" style="rounded=0;whiteSpace=wrap;html=1;fontSize=17;fillColor=#f5f5f5;fontColor=#333333;strokeColor=#666666;" parent="1" vertex="1">
          <mxGeometry x="1870" y="480" width="120" height="60" as="geometry" />
        </mxCell>
        <mxCell id="OB-4bpoAMs0yZIJqVkp9-28" style="edgeStyle=orthogonalEdgeStyle;rounded=0;orthogonalLoop=1;jettySize=auto;html=1;jumpStyle=arc;fillColor=#f5f5f5;strokeColor=#000000;" parent="1" target="OB-4bpoAMs0yZIJqVkp9-7" edge="1">
          <mxGeometry relative="1" as="geometry">
            <mxPoint x="1970" y="680.001176470588" as="sourcePoint" />
            <mxPoint x="1570.0588235294117" y="810.0599999999997" as="targetPoint" />
            <Array as="points">
              <mxPoint x="2030" y="680" />
              <mxPoint x="2030" y="780" />
            </Array>
          </mxGeometry>
        </mxCell>
        <mxCell id="qc44FEbHymRPq5CZaGEs-4" style="edgeStyle=orthogonalEdgeStyle;rounded=0;orthogonalLoop=1;jettySize=auto;html=1;strokeColor=#000000;jumpStyle=arc;" edge="1" parent="1" source="OB-4bpoAMs0yZIJqVkp9-18" target="qc44FEbHymRPq5CZaGEs-1">
          <mxGeometry relative="1" as="geometry">
            <Array as="points">
              <mxPoint x="2020" y="690" />
              <mxPoint x="2020" y="850" />
              <mxPoint x="1910" y="850" />
            </Array>
          </mxGeometry>
        </mxCell>
        <mxCell id="OB-4bpoAMs0yZIJqVkp9-18" value="TitleScanner" style="rounded=0;whiteSpace=wrap;html=1;fontSize=17;fillColor=#f5f5f5;fontColor=#333333;strokeColor=#666666;" parent="1" vertex="1">
          <mxGeometry x="1850" y="650" width="120" height="60" as="geometry" />
        </mxCell>
        <mxCell id="OB-4bpoAMs0yZIJqVkp9-20" value="ContactCatabase" style="shape=cylinder3;whiteSpace=wrap;html=1;boundedLbl=1;backgroundOutline=1;size=15;fillColor=#f5f5f5;fontColor=#333333;strokeColor=#000000;" parent="1" vertex="1">
          <mxGeometry x="2630" y="745" width="110" height="70" as="geometry" />
        </mxCell>
        <mxCell id="OB-4bpoAMs0yZIJqVkp9-23" style="edgeStyle=orthogonalEdgeStyle;rounded=0;orthogonalLoop=1;jettySize=auto;html=1;jumpStyle=arc;fillColor=#f5f5f5;strokeColor=#000000;" parent="1" source="OB-4bpoAMs0yZIJqVkp9-5" target="OB-4bpoAMs0yZIJqVkp9-8" edge="1">
          <mxGeometry relative="1" as="geometry" />
        </mxCell>
        <mxCell id="OB-4bpoAMs0yZIJqVkp9-48" value="generator" style="shape=umlFrame;whiteSpace=wrap;html=1;pointerEvents=0;fillColor=#f5f5f5;fontColor=#333333;strokeColor=#666666;width=70;height=20;" parent="1" vertex="1">
          <mxGeometry x="1190" y="550" width="230" height="100" as="geometry" />
        </mxCell>
        <mxCell id="OB-4bpoAMs0yZIJqVkp9-49" value="persistency" style="shape=umlFrame;whiteSpace=wrap;html=1;pointerEvents=0;fillColor=#f5f5f5;fontColor=#333333;strokeColor=#666666;width=80;height=20;" parent="1" vertex="1">
          <mxGeometry x="1460" y="550" width="200" height="310" as="geometry" />
        </mxCell>
        <mxCell id="OB-4bpoAMs0yZIJqVkp9-50" value="scanner" style="shape=umlFrame;whiteSpace=wrap;html=1;pointerEvents=0;fillColor=#f5f5f5;fontColor=#333333;strokeColor=#666666;width=80;height=20;" parent="1" vertex="1">
          <mxGeometry x="1720" y="460" width="280" height="330" as="geometry" />
        </mxCell>
        <mxCell id="OB-4bpoAMs0yZIJqVkp9-51" value="data_structures" style="shape=umlFrame;whiteSpace=wrap;html=1;pointerEvents=0;fillColor=#f5f5f5;fontColor=#333333;strokeColor=#666666;width=100;height=20;" parent="1" vertex="1">
          <mxGeometry x="2080" y="550" width="310" height="270" as="geometry" />
        </mxCell>
        <mxCell id="OB-4bpoAMs0yZIJqVkp9-52" value="data_store" style="shape=umlFrame;whiteSpace=wrap;html=1;pointerEvents=0;fillColor=#f5f5f5;fontColor=#333333;strokeColor=#666666;width=80;height=20;" parent="1" vertex="1">
          <mxGeometry x="2430" y="620" width="140" height="200" as="geometry" />
        </mxCell>
        <mxCell id="OB-4bpoAMs0yZIJqVkp9-56" style="edgeStyle=orthogonalEdgeStyle;rounded=0;orthogonalLoop=1;jettySize=auto;html=1;strokeColor=#000000;jumpStyle=arc;" parent="1" source="OB-4bpoAMs0yZIJqVkp9-55" target="OB-4bpoAMs0yZIJqVkp9-9" edge="1">
          <mxGeometry relative="1" as="geometry" />
        </mxCell>
        <mxCell id="OB-4bpoAMs0yZIJqVkp9-57" style="edgeStyle=orthogonalEdgeStyle;rounded=0;orthogonalLoop=1;jettySize=auto;html=1;strokeColor=#000000;jumpStyle=arc;" parent="1" source="OB-4bpoAMs0yZIJqVkp9-55" target="OB-4bpoAMs0yZIJqVkp9-11" edge="1">
          <mxGeometry relative="1" as="geometry">
            <Array as="points">
              <mxPoint x="1690" y="390" />
              <mxPoint x="1690" y="620" />
            </Array>
          </mxGeometry>
        </mxCell>
        <mxCell id="OB-4bpoAMs0yZIJqVkp9-58" style="edgeStyle=orthogonalEdgeStyle;rounded=0;orthogonalLoop=1;jettySize=auto;html=1;strokeColor=#000000;jumpStyle=arc;" parent="1" source="OB-4bpoAMs0yZIJqVkp9-55" target="OB-4bpoAMs0yZIJqVkp9-13" edge="1">
          <mxGeometry relative="1" as="geometry">
            <Array as="points">
              <mxPoint x="1690" y="390" />
              <mxPoint x="1690" y="670" />
            </Array>
          </mxGeometry>
        </mxCell>
        <mxCell id="OB-4bpoAMs0yZIJqVkp9-59" style="edgeStyle=orthogonalEdgeStyle;rounded=0;orthogonalLoop=1;jettySize=auto;html=1;strokeColor=#000000;jumpStyle=arc;" parent="1" source="OB-4bpoAMs0yZIJqVkp9-55" target="OB-4bpoAMs0yZIJqVkp9-12" edge="1">
          <mxGeometry relative="1" as="geometry">
            <Array as="points">
              <mxPoint x="1690" y="390" />
              <mxPoint x="1690" y="740" />
            </Array>
          </mxGeometry>
        </mxCell>
        <mxCell id="OB-4bpoAMs0yZIJqVkp9-60" style="edgeStyle=orthogonalEdgeStyle;rounded=0;orthogonalLoop=1;jettySize=auto;html=1;strokeColor=#000000;jumpStyle=arc;" parent="1" source="OB-4bpoAMs0yZIJqVkp9-55" target="OB-4bpoAMs0yZIJqVkp9-10" edge="1">
          <mxGeometry relative="1" as="geometry">
            <Array as="points">
              <mxPoint x="1690" y="390" />
              <mxPoint x="1690" y="830" />
            </Array>
          </mxGeometry>
        </mxCell>
        <mxCell id="OB-4bpoAMs0yZIJqVkp9-61" style="edgeStyle=orthogonalEdgeStyle;rounded=0;orthogonalLoop=1;jettySize=auto;html=1;strokeColor=#000000;jumpStyle=arc;" parent="1" source="OB-4bpoAMs0yZIJqVkp9-55" target="OB-4bpoAMs0yZIJqVkp9-17" edge="1">
          <mxGeometry relative="1" as="geometry">
            <Array as="points">
              <mxPoint x="1900" y="440" />
              <mxPoint x="1930" y="440" />
            </Array>
          </mxGeometry>
        </mxCell>
        <mxCell id="OB-4bpoAMs0yZIJqVkp9-62" style="edgeStyle=orthogonalEdgeStyle;rounded=0;orthogonalLoop=1;jettySize=auto;html=1;strokeColor=#000000;jumpStyle=arc;" parent="1" source="OB-4bpoAMs0yZIJqVkp9-55" target="OB-4bpoAMs0yZIJqVkp9-5" edge="1">
          <mxGeometry relative="1" as="geometry">
            <Array as="points">
              <mxPoint x="2190" y="390" />
            </Array>
          </mxGeometry>
        </mxCell>
        <mxCell id="OB-4bpoAMs0yZIJqVkp9-63" style="edgeStyle=orthogonalEdgeStyle;rounded=0;orthogonalLoop=1;jettySize=auto;html=1;strokeColor=#000000;jumpStyle=arc;" parent="1" source="OB-4bpoAMs0yZIJqVkp9-55" target="OB-4bpoAMs0yZIJqVkp9-3" edge="1">
          <mxGeometry relative="1" as="geometry">
            <Array as="points">
              <mxPoint x="2520" y="390" />
            </Array>
          </mxGeometry>
        </mxCell>
        <mxCell id="OB-4bpoAMs0yZIJqVkp9-66" style="edgeStyle=orthogonalEdgeStyle;rounded=0;orthogonalLoop=1;jettySize=auto;html=1;labelBackgroundColor=none;fontColor=none;noLabel=1;strokeColor=#000000;jumpStyle=arc;" parent="1" source="OB-4bpoAMs0yZIJqVkp9-55" target="OB-4bpoAMs0yZIJqVkp9-64" edge="1">
          <mxGeometry relative="1" as="geometry" />
        </mxCell>
        <mxCell id="OB-4bpoAMs0yZIJqVkp9-55" value="Main" style="rounded=0;whiteSpace=wrap;html=1;fontSize=17;fillColor=#f5f5f5;fontColor=#333333;strokeColor=#666666;" parent="1" vertex="1">
          <mxGeometry x="1850" y="360" width="100" height="60" as="geometry" />
        </mxCell>
        <mxCell id="OB-4bpoAMs0yZIJqVkp9-64" value="&lt;div&gt;UI&lt;/div&gt;" style="html=1;dropTarget=0;whiteSpace=wrap;align=center;verticalAlign=middle;fillColor=#f5f5f5;fontColor=#333333;strokeColor=#666666;fontSize=24;fontStyle=1" parent="1" vertex="1">
          <mxGeometry x="1850" y="260" width="100" height="60" as="geometry" />
        </mxCell>
        <mxCell id="OB-4bpoAMs0yZIJqVkp9-65" value="" style="shape=module;jettyWidth=8;jettyHeight=4;" parent="OB-4bpoAMs0yZIJqVkp9-64" vertex="1">
          <mxGeometry x="1" width="20" height="20" relative="1" as="geometry">
            <mxPoint x="-27" y="7" as="offset" />
          </mxGeometry>
        </mxCell>
        <mxCell id="qc44FEbHymRPq5CZaGEs-1" value="OptionsDatabase" style="shape=cylinder3;whiteSpace=wrap;html=1;boundedLbl=1;backgroundOutline=1;size=15;fillColor=#f5f5f5;fontColor=#333333;strokeColor=#000000;" vertex="1" parent="1">
          <mxGeometry x="1855" y="900" width="110" height="70" as="geometry" />
        </mxCell>
        <mxCell id="OB-4bpoAMs0yZIJqVkp9-41" style="edgeStyle=orthogonalEdgeStyle;rounded=0;orthogonalLoop=1;jettySize=auto;html=1;fillColor=#f5f5f5;strokeColor=#000000;jumpStyle=arc;" parent="1" source="OB-4bpoAMs0yZIJqVkp9-10" target="OB-4bpoAMs0yZIJqVkp9-6" edge="1">
          <mxGeometry relative="1" as="geometry">
            <Array as="points">
              <mxPoint x="1560" y="870" />
              <mxPoint x="2170" y="870" />
            </Array>
          </mxGeometry>
        </mxCell>
      </root>
    </mxGraphModel>
  </diagram>
</mxfile>
